<?xml version="1.0" standalone="no"?>
<!DOCTYPE svg PUBLIC "-//W3C//DTD SVG 20010904//EN"
 "http://www.w3.org/TR/2001/REC-SVG-20010904/DTD/svg10.dtd">
<svg version="1.0" xmlns="http://www.w3.org/2000/svg"
 width="200.000000pt" height="200.000000pt" viewBox="0 0 200.000000 200.000000"
 preserveAspectRatio="xMidYMid meet">
<metadata>
Created by potrace 1.16, written by Peter Selinger 2001-2019
</metadata>
<g transform="translate(0.000000,200.000000) scale(0.100000,-0.100000)"
fill="#000000" stroke="none">
<path d="M0 1000 l0 -1000 1000 0 1000 0 0 1000 0 1000 -1000 0 -1000 0 0
-1000z m1164 898 c14 -13 70 -99 125 -193 83 -139 101 -177 101 -210 0 -32
-33 -177 -66 -287 -4 -14 15 -8 87 27 51 25 100 45 109 45 24 0 70 -38 81 -67
5 -15 5 -71 -2 -149 -6 -69 -9 -127 -6 -130 3 -3 33 0 67 6 75 14 117 1 126
-37 8 -30 -53 -240 -76 -263 -9 -9 -85 -40 -168 -69 l-152 -53 0 -38 c0 -45
26 -81 74 -104 50 -23 76 -20 158 20 76 37 113 39 173 12 33 -15 32 -24 -4
-31 -16 -4 -61 -33 -100 -66 -86 -72 -144 -90 -225 -72 -56 12 -117 56 -146
103 l-18 29 -6 -26 c-4 -16 -1 -34 9 -48 23 -33 19 -124 -8 -172 -20 -35 -77
-85 -98 -85 -4 0 -2 17 5 38 7 20 16 54 20 75 7 37 7 37 -27 37 -41 0 -66 24
-74 73 -3 23 -19 48 -42 71 l-37 37 -14 -28 c-7 -15 -12 -46 -11 -68 2 -31 -3
-45 -21 -62 -29 -26 -62 -36 -89 -28 -21 7 -21 7 5 32 47 44 -1 61 -60 21 -40
-28 -57 -54 -49 -79 7 -20 53 -49 80 -49 25 0 17 -18 -15 -35 -90 -47 -178 20
-167 129 4 42 10 55 44 86 21 21 45 39 53 42 12 4 9 11 -11 35 l-25 30 -22
-38 c-44 -75 -133 -97 -237 -58 -55 20 -57 20 -77 2 -27 -23 -48 -74 -48 -113
0 -66 -43 -11 -55 72 -8 56 6 106 40 138 33 31 110 38 165 16 77 -31 130 -11
130 50 0 33 -26 49 -201 125 -90 39 -173 81 -185 93 -20 20 -134 327 -134 360
0 34 36 44 149 38 l108 -5 6 34 c3 19 16 133 28 253 22 211 24 221 51 252 30
34 70 47 117 38 16 -4 84 -51 152 -105 67 -55 123 -98 125 -96 2 1 -2 23 -7
47 -6 24 -8 55 -4 67 7 31 210 339 226 346 28 11 48 6 73 -15z"/>
</g>
</svg>
