<svg id="Слой_1" data-name="Слой 1" xmlns="http://www.w3.org/2000/svg" viewBox="0 0 278 278"><defs><style>.cls-1{fill:#f2f2f2;}</style></defs><title>enjine_nb</title><path class="cls-1" d="M65.36,61,49.19,33.24c-2.81,2.38-5.53,4.89-8.14,7.47a138.16,138.16,0,0,0,0,196.58c2.61,2.58,5.33,5.08,8.14,7.46L65.36,217a108.15,108.15,0,0,1-31.6-56.56l-1.18-5.75H53.65A84.69,84.69,0,0,0,60.16,175H74.28a73,73,0,0,1-7.79-20.29H93.31a48.56,48.56,0,0,0,55.88,31.2l13.34,22.9a74.27,74.27,0,0,1-21.69,3.76l7,12.06a86.78,86.78,0,0,0,21.07-4.82l8.38,14.39,2.95,5.07-5.6,1.87a109.59,109.59,0,0,1-65.23,1.19L93.28,270a140.78,140.78,0,0,0,146-32.73,138.72,138.72,0,0,0,30-44.18A137.15,137.15,0,0,0,278,164.25H245.7A108.4,108.4,0,0,1,212,219.63l-4.43,3.88-3-5.08-8.53-14.64a85.78,85.78,0,0,0,13.75-15.13l-7.06-12.13a73.5,73.5,0,0,1-13.12,16.21L176.2,169.59a47.62,47.62,0,0,0,0-61.19l13.51-23.2a73.31,73.31,0,0,1,12.62,15.38l7-12.06a85.72,85.72,0,0,0-13.2-14.38l8.49-14.58,3-5.08L212,58.37a108.36,108.36,0,0,1,33.67,55.38H278a137,137,0,0,0-8.71-28.86,140,140,0,0,0-74.58-74A141.71,141.71,0,0,0,93.28,8l16.15,27.75a109.59,109.59,0,0,1,65.23,1.19l5.6,1.86-2.95,5.08L169,58.15a86.66,86.66,0,0,0-22-4.92l-7.06,12.13a74.16,74.16,0,0,1,22.66,3.79l-13.39,23a48.56,48.56,0,0,0-55.88,31.19H66.47a73,73,0,0,1,7.36-19.59h-14a84.63,84.63,0,0,0-6.16,19.59H32.58l1.18-5.74A108.12,108.12,0,0,1,65.36,61ZM139,123a16,16,0,1,1-16.11,16A16,16,0,0,1,139,123Z"/></svg>