<svg id="Слой_1" data-name="Слой 1" xmlns="http://www.w3.org/2000/svg" viewBox="0 0 516.33 107.06"><defs><style>.cls-1{fill:#f2f2f2;}</style></defs><title>enjine</title><polygon class="cls-1" points="163.19 67.83 120.46 0.02 120.39 0.02 120.39 0 98.99 0 98.99 0.02 98.99 5.16 98.99 107.01 120.39 107.01 120.39 41.94 120.39 39.12 163.18 107.01 163.19 107.04 184.6 107.04 184.6 107.01 184.6 101.78 184.6 0.02 163.19 0.02 163.19 67.83"/><polygon class="cls-1" points="0 0.01 0 107.03 21.4 107.03 85.61 107.03 85.61 85.62 21.4 85.62 21.4 64.22 85.61 64.22 85.61 42.82 21.4 42.82 21.4 21.41 85.61 21.41 85.61 0.01 0 0.01 0 0.01"/><polygon class="cls-1" points="516.33 21.44 516.33 0.03 452.12 0.03 430.71 0.03 430.71 107.05 430.71 107.05 516.33 107.05 516.33 85.64 452.12 85.64 452.12 64.24 516.33 64.24 516.33 42.84 452.12 42.84 452.12 21.44 516.33 21.44"/><rect class="cls-1" x="296.95" y="0.03" width="21.4" height="107.01"/><path class="cls-1" d="M262.19,64.18a21.26,21.26,0,0,1-6.2,15l-5.78-8.53a11.51,11.51,0,0,0-1-14.7l2.87-5.79a17.75,17.75,0,0,1,3.28,3.49l1.49-3a21.35,21.35,0,0,0-3.41-3.23l1.8-3.64.63-1.27,1.12.87a26,26,0,0,1,9,12.74l7.75-.53a33,33,0,0,0-2.56-6.78,33.92,33.92,0,0,0-43.53-15.6l4.33,6.4a26.43,26.43,0,0,1,15.69-.79l1.37.37-.62,1.26L246.65,44a21,21,0,0,0-5.35-.82l-1.5,3a17.5,17.5,0,0,1,5.5.54l-2.84,5.74a11.94,11.94,0,0,0-2.47-.1,11.67,11.67,0,0,0-10.45,8.5l-10.16.69V.1H198V64.18a42.81,42.81,0,0,0,85.61,0ZM240.52,60.1a3.84,3.84,0,1,1-3.61,4.09A3.86,3.86,0,0,1,240.52,60.1ZM248.85,84A21.39,21.39,0,0,1,220,69.12l10.08-.68a11.64,11.64,0,0,0,11.5,7A11.35,11.35,0,0,0,244,75l5.79,8.56C249.46,83.72,249.16,83.87,248.85,84Z"/><polygon class="cls-1" points="396.38 67.85 353.65 0.04 353.58 0.04 353.58 0.02 332.18 0.02 332.18 0.04 332.18 5.19 332.18 107.04 353.58 107.04 353.58 41.96 353.58 39.14 396.37 107.04 396.38 107.06 417.79 107.06 417.79 107.04 417.79 101.81 417.79 0.04 396.38 0.04 396.38 67.85"/></svg>