<svg id="Слой_1" data-name="Слой 1" xmlns="http://www.w3.org/2000/svg" viewBox="0 0 739.27 185.49"><defs><style>.cls-1{fill:#f2f2f2;}</style></defs><title>enjine+</title><polygon class="cls-1" points="386.14 39.24 386.14 107.04 343.4 39.24 343.33 39.24 343.33 39.22 321.93 39.22 321.93 39.24 321.93 44.38 321.93 146.23 343.33 146.23 343.33 81.15 343.33 78.34 386.13 146.23 386.14 146.25 407.54 146.25 407.54 146.23 407.54 141 407.54 39.24 386.14 39.24"/><polygon class="cls-1" points="308.56 60.63 308.56 39.23 222.94 39.23 222.94 39.23 222.94 39.23 222.94 146.24 244.35 146.24 244.35 146.24 308.56 146.24 308.56 124.84 244.35 124.84 244.35 103.44 308.56 103.44 308.56 82.03 244.35 82.03 244.35 60.63 308.56 60.63"/><polygon class="cls-1" points="739.27 124.86 739.27 146.26 653.66 146.26 653.66 146.26 653.66 146.26 653.66 39.25 675.06 39.25 675.06 39.25 739.27 39.25 739.27 60.65 675.06 60.65 675.06 82.06 739.27 82.06 739.27 103.46 675.06 103.46 675.06 124.86 739.27 124.86"/><rect class="cls-1" x="519.9" y="39.24" width="21.4" height="107.01"/>
<path class="cls-1" d="M506.53,103.39a42.81,42.81,0,1,1-85.61,0h0V39.31h21.41v64.08h0a21.41,21.41,0,1,0,42.81,0Z"/>
<path class="cls-1" d="M141.47,146.54l-3,2.59-2-3.39L130.85,136A56.72,56.72,0,0,0,140,125.88l-4.71-8.09a48.73,48.73,0,0,1-8.75,10.81l-9-15.44a31.79,31.79,0,0,0,0-40.83l9-15.48A48.67,48.67,0,0,1,135,67.11l4.68-8a56.9,56.9,0,0,0-8.8-9.59l5.66-9.73,2-3.39,3,2.6a72.27,72.27,0,0,1,22.47,36.94h21.55a91.47,91.47,0,0,0-5.81-19.25A93.43,93.43,0,0,0,129.92,7.29a94.57,94.57,0,0,0-67.68-2L73,23.83a73.06,73.06,0,0,1,43.53.8l3.74,1.24-2,3.39-5.56,9.54a57.76,57.76,0,0,0-14.68-3.28l-4.71,8.09a49.32,49.32,0,0,1,15.12,2.53L99.55,61.48A32.37,32.37,0,0,0,62.26,82.29H44.35a48.52,48.52,0,0,1,4.91-13.07H39.89a56.68,56.68,0,0,0-4.11,13.07h-14l.78-3.83A72.21,72.21,0,0,1,43.61,40.72L32.82,22.18c-1.87,1.59-3.69,3.26-5.43,5a92.16,92.16,0,0,0,0,131.16c1.74,1.73,3.56,3.4,5.43,5l10.79-18.54A72.21,72.21,0,0,1,22.52,107l-.78-3.83H35.8a56.28,56.28,0,0,0,4.34,13.53h9.42a48.47,48.47,0,0,1-5.19-13.53H62.26A32.37,32.37,0,0,0,99.55,124l8.89,15.28A49.55,49.55,0,0,1,94,141.8l4.69,8a58,58,0,0,0,14.06-3.22l5.59,9.6,2,3.39-3.74,1.24a73.16,73.16,0,0,1-43.53.79L62.24,180.17a93.95,93.95,0,0,0,97.4-21.85,92.08,92.08,0,0,0,25.85-48.73H163.94A72.26,72.26,0,0,1,141.47,146.54ZM92.74,103.41a10.67,10.67,0,1,1,10.75-10.67A10.71,10.71,0,0,1,92.74,103.41Z"/>
<polygon class="cls-1" points="619.33 39.26 619.33 107.06 576.6 39.26 576.52 39.26 576.52 39.24 555.12 39.24 555.12 39.26 555.12 44.4 555.12 146.25 576.52 146.25 576.52 81.18 576.52 78.36 619.32 146.25 619.33 146.27 640.73 146.27 640.73 146.25 640.73 141.02 640.73 39.26 619.33 39.26"/>
</svg>